<?xml version="1.0" encoding="utf-8"?>
<svg xmlns="http://www.w3.org/2000/svg" viewBox="-626.326 -997.3231 1655.2533 2467.0933" width="1655.25px" height="2467.09px" preserveAspectRatio="none"><g id="svg1"><g id="g1" transform="matrix(1, 0, 0, 1, -1265.365967, -1230.443237)"><g id="group-R5"><path id="path3" d="m 16434.8,15213.3 -311.4,-2457.1 -928.9,-7330 -299.4,-2362.9 c -23.8,-187.8 -117.9,-360.3 -265.1,-479.3 -608.3,-491.7 -2004.7,-835.6 -3630,-835.6 -1625.3,0 -3021.7,343.9 -3630,835.6 -147.2,119 -241.3,291.5 -265.1,479.3 l -299.4,2362.9 -928.9,7330 -311.4,2457.1 h 10869.6" style="fill-opacity: 1; fill-rule: nonzero; stroke: none; fill: rgb(81, 81, 81);" transform="matrix(0.13333333,0,0,-0.13333333,0,2933.3333)"/><path id="path4" d="m 4988.36,17156.9 c 0,0 -195.56,-713.8 -195.56,-986.5 0,-1093.4 2779,-1979.7 6207.2,-1979.7 3428.2,0 6207.2,886.3 6207.2,1979.7 0,272.7 -195.6,986.5 -195.6,986.5 H 4988.36" style="fill-opacity: 1; fill-rule: nonzero; stroke: none; fill: rgb(212, 212, 212);" transform="matrix(0.13333333,0,0,-0.13333333,0,2933.3333)"/><path id="path5" d="m 16174,17989.3 c 544.4,-288.9 857.4,-627.3 857.4,-989.1 0,-1062.4 -2700.3,-1923.6 -6031.4,-1923.6 -3331.1,0 -6031.4,861.2 -6031.4,1923.6 0,361.8 313,700.2 857.4,989.1 h 10348" style="fill-opacity: 1; fill-rule: nonzero; stroke: none; fill: rgb(255, 255, 255);" transform="matrix(0.13333333,0,0,-0.13333333,0,2933.3333)"/><path id="path6" d="m 15910.9,19083.6 c 105.7,-140.9 185.1,-297.9 364.1,-1955.9 22.8,-211.9 -50.7,-424.3 -204.1,-572.2 -650.1,-626.3 -2674.4,-1076.7 -5070.9,-1076.7 -2396.5,0 -4420.79,450.4 -5070.89,1076.7 -153.45,147.9 -226.96,360.3 -204.09,572.2 178.94,1658 258.35,1815 364.09,1955.9 h 9821.79" style="fill-opacity: 1; fill-rule: nonzero; stroke: none; fill: rgb(212, 212, 212);" transform="matrix(0.13333333,0,0,-0.13333333,0,2933.3333)"/><path id="path7" d="m 16000,18811.6 c 0,-795.3 -2238.6,-1440 -5000,-1440 -2761.42,0 -5000,644.7 -5000,1440 0,795.3 2238.58,1440 5000,1440 2761.4,0 5000,-644.7 5000,-1440" style="fill-opacity: 1; fill-rule: nonzero; stroke: none; fill: rgb(255, 255, 255);" transform="matrix(0.13333333,0,0,-0.13333333,0,2933.3333)"/><path id="path8" d="m 15003.5,18811.6 c 0,-508.1 -1792.4,-920 -4003.5,-920 -2211.09,0 -4003.53,411.9 -4003.53,920 0,508.1 1792.44,920 4003.53,920 2211.1,0 4003.5,-411.9 4003.5,-920" style="fill-opacity: 1; fill-rule: nonzero; stroke: none; fill: rgb(212, 212, 212);" transform="matrix(0.13333333,0,0,-0.13333333,0,2933.3333)"/><path id="path9" d="M 16209.9,12992.5 15266.3,5646.6 C 15182.2,4867.9 13356.2,4237 11000,4237 8643.8,4237 6817.8,4867.9 6733.7,5646.6 l -943.6,7345.9 c 0,0 496.1,-1589.7 5209.9,-1589.7 4713.8,0 5209.9,1589.7 5209.9,1589.7" style="fill-opacity: 1; fill-rule: nonzero; stroke: none; fill: rgb(125, 125, 125);" transform="matrix(0.13333333,0,0,-0.13333333,0,2933.3333)"/><path id="path10" d="m 16216.9,13082.6 c 0,-29.9 -2.3,-59.6 -6.9,-89.1 0,0 -0.1,-0.8 -0.1,-1 -15.2,-118 -88,-238.8 -88,-238.8 -464.5,-794.7 -2581.2,-1394.9 -5121.9,-1394.9 -2540.7,0 -4657.4,600.2 -5121.9,1394.9 0,0 -72.8,120.8 -88,238.8 0,0.2 -0.1,1 -0.1,1 -4.6,29.5 -6.9,59.2 -6.9,89.1 0,91.5 31.4,163.8 31.4,163.8 l 2.3,-17.8 c 51.5,-401.5 196.6,-582.3 441.2,-767.6 797.2,-604 2620.4,-1026.2 4742,-1026.2 2121.6,0 3944.8,422.2 4742,1026.2 244.6,185.3 389.7,366.1 441.2,767.6 l 2.3,17.8 c 0,0 31.4,-72.3 31.4,-163.8" style="fill-opacity: 1; fill-rule: nonzero; stroke: none; fill: rgb(158, 255, 31);" transform="matrix(0.13333333,0,0,-0.13333333,0,2933.3333)"/><path id="path11" d="m 12821,8477.7 c 7.9,-1834.6 -1865.1,-2424.1 -1865.1,-2424.1 0,0 -1873,589.5 -1865.14,2424.1 1.31,304.4 190.09,685.6 455.78,859.2 265.8,173.7 633.76,220.5 918.96,76.8 253.8,-127.7 407,-378.4 490.4,-640.9 83.4,262.5 236.6,513.2 490.4,640.9 285.2,143.7 653.2,96.9 919,-76.8 265.6,-173.6 454.4,-554.8 455.7,-859.2" style="fill-opacity: 1; fill-rule: nonzero; stroke: none; fill: rgb(158, 255, 31);" transform="matrix(0.13333333,0,0,-0.13333333,0,2933.3333)"/></g></g></g></svg>